<svg width="88" height="16" viewBox="0 0 88 16" fill="none" xmlns="http://www.w3.org/2000/svg">
<path d="M7.45357 0.656265L9.90699 4.74154L14.5423 5.81735L11.4233 9.41799L11.8347 14.1681L7.45357 12.3082L3.07247 14.1681L3.48386 9.41799L0.364804 5.81735L5.00015 4.74154L7.45357 0.656265Z" fill="#FFBF00"/>
<path d="M25.7266 0.656265L28.18 4.74154L32.8153 5.81735L29.6963 9.41799L30.1076 14.1681L25.7266 12.3082L21.3455 14.1681L21.7568 9.41799L18.6378 5.81735L23.2731 4.74154L25.7266 0.656265Z" fill="#FFBF00"/>
<path d="M43.9995 0.656265L46.453 4.74154L51.0883 5.81735L47.9693 9.41799L48.3806 14.1681L43.9995 12.3082L39.6184 14.1681L40.0298 9.41799L36.9108 5.81735L41.5461 4.74154L43.9995 0.656265Z" fill="#FFBF00"/>
<path d="M62.273 0.656265L64.7264 4.74154L69.3617 5.81735L66.2427 9.41799L66.6541 14.1681L62.273 12.3082L57.8919 14.1681L58.3033 9.41799L55.1842 5.81735L59.8196 4.74154L62.273 0.656265Z" fill="#FFBF00"/>
<path d="M80.5464 0.656265L82.9999 4.74154L87.6352 5.81735L84.5161 9.41799L84.9275 14.1681L80.5464 12.3082L76.1653 14.1681L76.5767 9.41799L73.4577 5.81735L78.093 4.74154L80.5464 0.656265Z" fill="#FFBF00"/>
<path d="M80.4933 1.5658L82.5181 4.93733L82.6272 5.11904L82.8337 5.16696L86.6611 6.05525L84.0851 9.02898L83.9467 9.18882L83.9649 9.3995L84.3046 13.3214L80.6887 11.7863L80.4933 11.7034L80.2979 11.7863L76.6821 13.3214L77.0218 9.3995L77.04 9.18882L76.9015 9.02898L74.3256 6.05525L78.153 5.16696L78.3594 5.11904L78.4686 4.93733L80.4933 1.5658Z" fill="white" stroke="#FFBF00"/>
<path d="M76.2155 14.1065L80.596 12.2466V0.594635L78.1429 4.67991L73.5081 5.75572L76.6268 9.35636L76.2155 14.1065Z" fill="#FFBF00"/>
</svg>
